<?xml version="1.0" standalone="no"?>
<!DOCTYPE svg PUBLIC "-//W3C//DTD SVG 20010904//EN"
 "http://www.w3.org/TR/2001/REC-SVG-20010904/DTD/svg10.dtd">
<svg version="1.0" xmlns="http://www.w3.org/2000/svg"
 width="809.000000pt" height="150.000000pt" viewBox="0 0 809.000000 150.000000"
 preserveAspectRatio="xMidYMid meet">

<g transform="translate(0.000000,150.000000) scale(0.100000,-0.100000)"
fill="#000000" stroke="none">
<path d="M817 1292 c-15 -17 -17 -70 -17 -555 0 -474 2 -537 16 -551 13 -14
54 -16 298 -16 206 0 285 3 294 12 17 17 17 679 0 696 -17 17 -369 17 -386 0
-16 -16 -16 -160 0 -176 8 -8 53 -12 135 -12 110 0 125 -2 143 -20 24 -24 25
-39 6 -66 -13 -17 -30 -19 -181 -22 -231 -5 -215 -20 -215 207 0 160 2 180 18
194 16 15 48 17 243 17 162 0 228 3 237 12 8 8 12 55 12 145 0 121 -2 133 -19
143 -12 6 -124 10 -294 10 -253 0 -275 -1 -290 -18z"/>
<path d="M1548 1299 c-17 -9 -18 -47 -18 -557 0 -413 3 -551 12 -560 17 -17
54 -15 72 4 13 13 16 45 16 189 0 144 3 176 16 189 13 13 45 16 193 16 124 0
181 -4 189 -12 8 -8 12 -63 12 -183 0 -186 7 -215 55 -215 57 0 55 -16 55 569
0 508 -1 539 -18 554 -16 15 -51 17 -293 17 -167 0 -281 -5 -291 -11z m476
-318 c10 -11 16 -30 14 -42 -6 -42 -39 -50 -216 -47 -149 3 -165 5 -178 22
-19 27 -18 42 6 66 18 18 33 20 188 20 154 0 170 -2 186 -19z"/>
<path d="M2267 1292 c-15 -17 -17 -70 -17 -555 0 -474 2 -537 16 -551 13 -14
64 -16 399 -16 335 0 386 2 399 16 13 13 16 45 16 193 0 131 -3 181 -12 189
-7 6 -71 12 -141 14 -114 3 -130 5 -143 22 -11 16 -14 80 -14 346 0 316 -1
328 -20 345 -16 15 -26 17 -48 9 l-27 -9 -5 -339 -5 -338 -24 -19 c-20 -16
-40 -19 -130 -19 -165 0 -151 -33 -151 358 0 280 -2 331 -16 350 -18 27 -55
29 -77 4z"/>
<path d="M3196 1288 c-14 -20 -16 -89 -16 -554 0 -502 1 -532 18 -547 16 -15
52 -17 298 -17 205 0 283 3 292 12 17 17 17 1099 0 1116 -9 9 -88 12 -294 12
-281 0 -283 0 -298 -22z m482 -304 c21 -15 22 -21 22 -193 0 -154 -2 -180 -17
-192 -12 -10 -60 -15 -180 -17 -229 -5 -213 -20 -213 208 0 226 -16 210 205
210 129 0 165 -3 183 -16z"/>
<path d="M4288 1299 c-17 -9 -18 -47 -18 -557 0 -413 3 -551 12 -560 9 -9 88
-12 294 -12 244 0 285 2 298 16 13 13 16 45 16 193 0 134 -3 181 -13 189 -8 7
-100 12 -246 14 -217 3 -234 4 -247 22 -11 15 -14 59 -14 188 0 155 2 170 20
188 19 19 33 20 250 20 216 0 230 1 240 19 5 11 10 74 10 140 0 95 -3 123 -16
135 -13 14 -54 16 -292 16 -170 0 -284 -5 -294 -11z"/>
<path d="M5007 1292 c-15 -17 -17 -70 -17 -554 0 -505 1 -536 18 -551 24 -22
55 -21 75 1 15 17 17 69 17 548 0 463 -2 532 -16 552 -18 27 -55 29 -77 4z"/>
<path d="M5216 1294 c-14 -14 -16 -78 -16 -554 0 -476 2 -540 16 -554 13 -14
54 -16 290 -16 171 0 283 4 295 10 18 10 19 23 19 193 0 129 -4 187 -12 195
-9 9 -75 12 -235 12 l-224 0 -24 24 c-16 16 -23 31 -19 43 15 41 29 43 264 43
162 0 229 3 238 12 7 7 12 42 12 88 0 46 -5 81 -12 88 -9 9 -75 12 -235 12
l-224 0 -24 24 c-16 16 -23 31 -19 43 15 41 29 43 264 43 162 0 229 3 238 12
8 8 12 54 12 139 0 103 -3 131 -16 143 -13 14 -54 16 -294 16 -240 0 -281 -2
-294 -16z"/>
<path d="M5936 1288 c-14 -20 -16 -89 -16 -548 0 -459 2 -528 16 -548 15 -22
17 -22 299 -22 282 0 284 0 299 22 14 19 16 69 16 341 0 200 -4 325 -10 338
-10 18 -23 19 -200 19 -219 0 -210 4 -210 -100 0 -100 0 -100 143 -100 135 0
167 -11 167 -55 0 -47 -30 -55 -205 -55 -220 0 -205 -16 -205 210 0 173 1 179
22 194 19 13 60 16 244 16 272 0 254 -11 254 151 0 173 27 159 -315 159 -282
0 -284 0 -299 -22z"/>
<path d="M6666 1294 c-14 -14 -16 -78 -16 -554 0 -476 2 -540 16 -554 13 -14
54 -16 290 -16 171 0 283 4 295 10 18 10 19 27 19 555 0 481 -2 545 -16 559
-13 14 -54 16 -294 16 -240 0 -281 -2 -294 -16z m485 -315 c19 -19 20 -30 17
-194 -2 -126 -7 -178 -16 -187 -9 -9 -60 -14 -182 -16 l-170 -3 -25 26 -26 25
3 171 c3 155 5 172 22 185 15 11 59 14 188 14 156 0 169 -1 189 -21z"/>
<path d="M7510 972 c-53 -43 -53 -331 0 -374 29 -24 75 -23 100 2 41 41 12 83
-31 44 -42 -38 -59 4 -59 141 0 137 17 179 59 141 43 -39 72 3 31 44 -25 25
-71 26 -100 2z"/>
<path d="M7722 970 c-31 -29 -37 -60 -37 -185 0 -125 6 -156 37 -185 42 -39
108 -14 125 48 5 15 8 77 8 137 0 61 -3 122 -8 137 -10 37 -45 68 -77 68 -14
0 -36 -9 -48 -20z m77 -67 c6 -21 11 -74 11 -118 0 -101 -14 -155 -40 -155
-26 0 -40 54 -40 155 0 101 14 155 40 155 14 0 22 -11 29 -37z"/>
<path d="M220 785 l0 -195 75 0 c73 0 75 1 75 25 0 23 -3 25 -50 25 l-50 0 0
70 0 70 30 0 c25 0 30 4 30 25 0 21 -5 25 -30 25 -29 0 -30 1 -30 50 l0 50 45
0 c41 0 45 2 45 25 0 24 -2 25 -70 25 l-70 0 0 -195z"/>
<path d="M420 785 l0 -195 75 0 c73 0 75 1 75 25 0 23 -3 25 -50 25 l-50 0 0
170 0 170 -25 0 -25 0 0 -195z"/>
<path d="M7903 624 c-3 -8 -1 -20 5 -26 16 -16 42 -2 42 22 0 24 -38 28 -47 4z"/>
</g>
</svg>
